<svg width="1058.2455810546874px" height="121.39999999999999px" xmlns="http://www.w3.org/2000/svg" viewBox="-279.1227905273437 14.300000000000004 1058.2455810546874 121.39999999999999" style="background: none;" preserveAspectRatio="xMidYMid"><defs><filter id="editing-vintage" x="-100%" y="-100%" width="300%" height="300%"><feConvolveMatrix in="SourceGraphic" result="extrude" order="9,9" divisor="1" kernelMatrix="1,0,0,0,0,0,0,0,0,0,1,0,0,0,0,0,0,0,0,0,1,0,0,0,0,0,0,0,0,0,1,0,0,0,0,0,0,0,0,0,1,0,0,0,0,0,0,0,0,0,1,0,0,0,0,0,0,0,0,0,1,0,0,0,0,0,0,0,0,0,1,0,0,0,0,0,0,0,0,0,1"> </feConvolveMatrix><feFlood flood-color="#900" result="flood-extrude"></feFlood><feComposite operator="in" in="flood-extrude" in2="extrude" result="extrude-color"></feComposite><feOffset dx="5" dy="5" in="extrude-color" result="extrude-offset"></feOffset><feColorMatrix in="SourceGraphic" result="stroke" type="matrix" values="0 0 0 0 0 0 0 0 0 0 0 0 0 0 0 0 1 0 0 0 "></feColorMatrix><feColorMatrix in="SourceGraphic" result="fill" type="matrix" values="0 0 0 0 0 0 0 0 0 0 0 0 0 0 0 1 0 0 1 0 "></feColorMatrix><feConvolveMatrix in="stroke" result="inner-shadow" order="5,5" divisor="1" kernelMatrix="1 0 0 0 0 0 1 0 0 0 0 0 1 0 0 0 0 0 1 0 0 0 0 0 1 "></feConvolveMatrix><feOffset dx="1" dy="1" in="inner-shadow" result="offset"></feOffset><feComposite operator="in" in="offset" in2="SourceAlpha" result="comp"></feComposite><feFlood flood-color="#000" result="flood3"></feFlood><feComposite operator="in" in="flood3" in2="comp" result="comp2"></feComposite><feColorMatrix in="comp2" result="comp3" type="matrix" values="1 0 0 0 0 0 1 0 0 0 0 0 1 0 0 0 0 0 0.5 0 "></feColorMatrix><feFlood flood-color="#f00" result="flood1"></feFlood><feComposite operator="in" in="flood1" in2="fill" result="fill2"></feComposite><feFlood flood-color="#fff" result="flood2"></feFlood><feComposite operator="in" in="flood2" in2="stroke" result="stroke2"></feComposite><feMerge result="obj"><feMergeNode in="extrude-offset"></feMergeNode><feMergeNode in="fill2"></feMergeNode><feMergeNode in="comp3"></feMergeNode></feMerge><feConvolveMatrix in="SourceAlpha" result="shadow" order="9,9" divisor="1" kernelMatrix="1,0,0,0,0,0,0,0,0,0,1,0,0,0,0,0,0,0,0,0,1,0,0,0,0,0,0,0,0,0,1,0,0,0,0,0,0,0,0,0,1,0,0,0,0,0,0,0,0,0,1,0,0,0,0,0,0,0,0,0,1,0,0,0,0,0,0,0,0,0,1,0,0,0,0,0,0,0,0,0,1"></feConvolveMatrix><feOffset dx="15" dy="15" in="shadow" result="shadow-offset"></feOffset><feFlood flood-color="#444444" result="flood-shadow"></feFlood><feComposite operator="in" in="flood-shadow" in2="shadow-offset" result="shadow-color"></feComposite><feMerge><feMergeNode in="shadow-color"></feMergeNode><feMergeNode in="obj"></feMergeNode></feMerge></filter></defs><g transform="translate(-9,-9)"><g filter="url(#editing-vintage)"><g transform="translate(-131.79974672198296, 99)"><path d="M0.45-0.32L0.45-0.32L8.51-42.24L8.51-42.24Q16.06-42.88 20.93-42.88L20.93-42.88L20.93-42.88Q25.79-42.88 28.93-42.46L28.93-42.46L28.93-42.46Q32.06-42.05 34.18-40.96L34.18-40.96L34.18-40.96Q38.40-38.91 38.40-33.28L38.40-33.28L38.40-33.28Q38.40-30.02 35.58-27.26L35.58-27.26L35.58-27.26Q32.96-24.77 30.08-24.19L30.08-24.19L30.08-24.19Q33.15-23.68 35.33-21.38L35.33-21.38L35.33-21.38Q37.63-18.94 37.63-15.17L37.63-15.17L37.63-15.17Q37.63-7.87 32.19-3.62L32.19-3.62L32.19-3.62Q26.75 0.64 16.06 0.64L16.06 0.64L16.06 0.64Q8.70 0.64 0.45-0.32ZM17.86-20.61L14.66-4.03L14.66-4.03Q15.23-3.97 15.36-3.97L15.36-3.97L15.94-3.97L15.94-3.97Q21.18-3.97 23.42-7.42L23.42-7.42L23.42-7.42Q25.09-10.11 25.09-15.04L25.09-15.04L25.09-15.04Q25.09-17.66 23.39-19.07L23.39-19.07L23.39-19.07Q21.70-20.48 17.86-20.61L17.86-20.61ZM27.58-33.22L27.58-33.22L27.58-33.22Q27.58-38.53 22.46-38.53L22.46-38.53L21.89-38.53L21.89-38.53Q21.63-38.53 21.25-38.46L21.25-38.46L18.69-24.96L19.33-24.96L19.33-24.96Q27.58-25.15 27.58-33.22ZM62.40-2.69L62.40-2.69L62.40-2.69Q59.33 1.28 51.71 1.28L51.71 1.28L51.71 1.28Q47.74 1.28 44.86-1.12L44.86-1.12L44.86-1.12Q41.98-3.52 41.98-6.98L41.98-6.98L41.98-6.98Q41.98-8.90 42.18-9.86L42.18-9.86L46.46-32.64L59.46-33.92L54.78-9.22L54.78-9.22Q54.53-7.81 54.53-6.98L54.53-6.98L54.53-6.98Q54.53-3.26 56.77-3.26L56.77-3.26L56.77-3.26Q59.26-3.26 61.06-6.66L61.06-6.66L61.06-6.66Q61.63-7.74 61.89-9.15L61.89-9.15L66.43-32.64L79.04-33.92L74.30-8.96L74.30-8.96Q74.11-8 74.11-6.98L74.11-6.98L74.11-6.98Q74.11-5.95 74.69-4.83L74.69-4.83L74.69-4.83Q75.26-3.71 77.12-3.46L77.12-3.46L77.12-3.46Q76.74-1.92 75.39-0.90L75.39-0.90L75.39-0.90Q72.58 1.28 69.54 1.28L69.54 1.28L69.54 1.28Q66.50 1.28 64.70 0.19L64.70 0.19L64.70 0.19Q62.91-0.90 62.40-2.69ZM97.86-3.52L97.86-3.52L97.86-3.52Q95.87 1.28 89.54 1.28L89.54 1.28L89.54 1.28Q86.27 1.28 84.22-0.96L84.22-0.96L84.22-0.96Q82.50-2.94 82.50-4.93L82.50-4.93L82.50-4.93Q82.50-10.11 84.86-20.22L84.86-20.22L87.23-32.64L100.22-33.92L96.32-13.70L96.32-13.70Q95.23-8.96 95.23-7.30L95.23-7.30L95.23-7.30Q95.23-3.65 97.86-3.52ZM88.38-41.54L88.38-41.54L88.38-41.54Q88.38-44.03 90.46-45.38L90.46-45.38L90.46-45.38Q92.54-46.72 95.55-46.72L95.55-46.72L95.55-46.72Q98.56-46.72 100.38-45.38L100.38-45.38L100.38-45.38Q102.21-44.03 102.21-41.54L102.21-41.54L102.21-41.54Q102.21-39.04 100.19-37.76L100.19-37.76L100.19-37.76Q98.18-36.48 95.17-36.48L95.17-36.48L95.17-36.48Q92.16-36.48 90.27-37.76L90.27-37.76L90.27-37.76Q88.38-39.04 88.38-41.54ZM118.59-3.52L118.59-3.52L118.59-3.52Q116.61 1.28 110.27 1.28L110.27 1.28L110.27 1.28Q107.07 1.28 105.02-0.96L105.02-0.96L105.02-0.96Q103.36-2.82 103.36-4.93L103.36-4.93L103.36-4.93Q103.36-9.73 105.60-20.22L105.60-20.22L110.27-44.80L123.26-46.08L117.06-13.70L117.06-13.70Q115.97-8.96 115.97-7.30L115.97-7.30L115.97-7.30Q115.97-3.65 118.59-3.52ZM144.19-33.92L144.19-33.92L144.19-33.92Q146.50-33.92 148.29-33.41L148.29-33.41L148.29-33.41Q148.35-33.66 148.48-34.37L148.48-34.37L148.80-36.35L148.80-36.35Q149.06-37.63 149.44-39.74L149.44-39.74L150.46-44.80L163.20-46.08L156.10-8.96L156.10-8.96Q156.03-8.58 156.03-7.94L156.03-7.94L156.03-6.91L156.03-6.91Q156.03-5.50 156.74-4.45L156.74-4.45L156.74-4.45Q157.44-3.39 158.59-3.39L158.59-3.39L158.59-3.39Q157.31-0.38 153.41 0.90L153.41 0.90L153.41 0.90Q152.06 1.28 150.18 1.28L150.18 1.28L150.18 1.28Q148.29 1.28 146.56 0.29L146.56 0.29L146.56 0.29Q144.83-0.70 144.32-2.37L144.32-2.37L144.32-2.37Q143.30-0.70 141.25 0.29L141.25 0.29L141.25 0.29Q139.20 1.28 136.22 1.28L136.22 1.28L136.22 1.28Q133.25 1.28 130.78 0.51L130.78 0.51L130.78 0.51Q128.32-0.26 126.78-1.92L126.78-1.92L126.78-1.92Q123.97-5.18 123.97-12.61L123.97-12.61L123.97-12.61Q123.97-22.21 129.60-28.03L129.60-28.03L129.60-28.03Q135.23-33.92 144.19-33.92ZM143.74-30.08L143.74-30.08L143.74-30.08Q141.38-30.08 140.10-27.52L140.10-27.52L140.10-27.52Q138.82-24.96 137.50-18.62L137.50-18.62L137.50-18.62Q136.19-12.29 136.19-6.59L136.19-6.59L136.19-6.59Q136.19-2.69 138.50-2.69L138.50-2.69L138.50-2.69Q140.54-2.69 141.98-4.74L141.98-4.74L141.98-4.74Q143.42-6.78 144-10.18L144-10.18L147.46-28.93L147.46-28.93Q146.11-30.08 143.74-30.08ZM183.30 0L187.01-18.82L187.01-18.82Q185.15-36.16 178.62-39.87L178.62-39.87L178.62-39.87Q179.97-41.54 182.14-42.46L182.14-42.46L182.14-42.46Q184.32-43.39 186.94-43.39L186.94-43.39L186.94-43.39Q189.57-43.39 191.55-42.46L191.55-42.46L191.55-42.46Q193.54-41.54 194.82-39.55L194.82-39.55L194.82-39.55Q197.25-35.78 197.25-26.75L197.25-26.75L197.25-22.14L197.25-22.14Q201.09-33.41 204.93-38.27L204.93-38.27L204.93-38.27Q208.83-43.26 213.70-43.26L213.70-43.26L213.70-43.26Q215.62-43.26 216.90-42.27L216.90-42.27L216.90-42.27Q218.18-41.28 218.82-39.81L218.82-39.81L218.82-39.81Q213.89-37.63 209.15-31.36L209.15-31.36L209.15-31.36Q204.42-25.09 201.34-16.32L201.34-16.32L197.57 0L183.30 0ZM226.18 1.28L226.18 1.28L226.18 1.28Q212.10 1.28 212.10-11.97L212.10-11.97L212.10-11.97Q212.10-21.38 217.28-27.46L217.28-27.46L217.28-27.46Q222.78-33.92 232.32-33.92L232.32-33.92L232.32-33.92Q239.23-33.92 242.75-30.72L242.75-30.72L242.75-30.72Q246.27-27.52 246.27-20.80L246.27-20.80L246.27-20.80Q246.27-10.56 240.77-4.61L240.77-4.61L240.77-4.61Q235.39 1.28 226.18 1.28ZM227.84-26.56L227.84-26.56L227.84-26.56Q227.07-24.83 226.46-22.24L226.46-22.24L226.46-22.24Q225.86-19.65 225.09-15.55L225.09-15.55L225.09-15.55Q224.32-11.46 224.32-6.40L224.32-6.40L224.32-6.40Q224.32-4.74 224.86-3.65L224.86-3.65L224.86-3.65Q225.41-2.56 226.88-2.56L226.88-2.56L226.88-2.56Q228.35-2.56 229.28-3.26L229.28-3.26L229.28-3.26Q230.21-3.97 230.91-5.63L230.91-5.63L230.91-5.63Q232.19-8.58 233.22-14.05L233.22-14.05L233.22-14.05Q234.24-19.52 234.34-21.89L234.34-21.89L234.34-21.89Q234.43-24.26 234.43-26.02L234.43-26.02L234.43-26.02Q234.43-27.78 233.92-28.93L233.92-28.93L233.92-28.93Q233.41-30.08 231.97-30.08L231.97-30.08L231.97-30.08Q230.53-30.08 229.57-29.18L229.57-29.18L229.57-29.18Q228.61-28.29 227.84-26.56ZM270.59-2.69L270.59-2.69L270.59-2.69Q267.52 1.28 259.90 1.28L259.90 1.28L259.90 1.28Q255.94 1.28 253.06-1.12L253.06-1.12L253.06-1.12Q250.18-3.52 250.18-6.98L250.18-6.98L250.18-6.98Q250.18-8.90 250.37-9.86L250.37-9.86L254.66-32.64L267.65-33.92L262.98-9.22L262.98-9.22Q262.72-7.81 262.72-6.98L262.72-6.98L262.72-6.98Q262.72-3.26 264.96-3.26L264.96-3.26L264.96-3.26Q267.46-3.26 269.25-6.66L269.25-6.66L269.25-6.66Q269.82-7.74 270.08-9.15L270.08-9.15L274.62-32.64L287.23-33.92L282.50-8.96L282.50-8.96Q282.30-8 282.30-6.98L282.30-6.98L282.30-6.98Q282.30-5.95 282.88-4.83L282.88-4.83L282.88-4.83Q283.46-3.71 285.31-3.46L285.31-3.46L285.31-3.46Q284.93-1.92 283.58-0.90L283.58-0.90L283.58-0.90Q280.77 1.28 277.73 1.28L277.73 1.28L277.73 1.28Q274.69 1.28 272.90 0.19L272.90 0.19L272.90 0.19Q271.10-0.90 270.59-2.69ZM310.72-17.98L310.72-17.98L310.72-17.98Q313.02-22.08 313.02-26.24L313.02-26.24L313.02-26.24Q313.02-28.99 311.04-28.99L311.04-28.99L311.04-28.99Q309.50-28.99 307.90-26.37L307.90-26.37L307.90-26.37Q306.24-23.74 305.73-20.35L305.73-20.35L302.40 0L289.15 1.28L295.68-32.64L306.24-33.92L305.09-27.46L305.09-27.46Q308.22-33.92 315.26-33.92L315.26-33.92L315.26-33.92Q318.98-33.92 320.99-32L320.99-32L320.99-32Q323.01-30.08 323.01-26.14L323.01-26.14L323.01-26.14Q323.01-22.21 320.42-19.71L320.42-19.71L320.42-19.71Q317.82-17.22 313.41-17.22L313.41-17.22L313.41-17.22Q311.49-17.22 310.72-17.98ZM361.09-4.80L361.09-4.80L361.09-4.80Q361.09-9.28 362.88-18.24L362.88-18.24L353.41-18.24L349.89 0L336.51 0L344.64-42.24L358.14-42.24L354.43-23.36L363.90-23.36L367.42-42.24L380.93-42.24L380.93-42.24Q380.03-37.50 378.88-32.19L378.88-32.19L376.70-21.76L376.70-21.76Q374.27-9.60 374.27-4.29L374.27-4.29L374.27-4.29Q374.27-2.11 374.98-0.90L374.98-0.90L374.98-0.90Q371.78 1.28 368.03 1.28L368.03 1.28L368.03 1.28Q364.29 1.28 362.69-0.51L362.69-0.51L362.69-0.51Q361.09-2.30 361.09-4.80ZM396.42 1.28L396.42 1.28L396.42 1.28Q382.34 1.28 382.34-11.97L382.34-11.97L382.34-11.97Q382.34-21.38 387.52-27.46L387.52-27.46L387.52-27.46Q393.02-33.92 402.56-33.92L402.56-33.92L402.56-33.92Q409.47-33.92 412.99-30.72L412.99-30.72L412.99-30.72Q416.51-27.52 416.51-20.80L416.51-20.80L416.51-20.80Q416.51-10.56 411.01-4.61L411.01-4.61L411.01-4.61Q405.63 1.28 396.42 1.28ZM398.08-26.56L398.08-26.56L398.08-26.56Q397.31-24.83 396.70-22.24L396.70-22.24L396.70-22.24Q396.10-19.65 395.33-15.55L395.33-15.55L395.33-15.55Q394.56-11.46 394.56-6.40L394.56-6.40L394.56-6.40Q394.56-4.74 395.10-3.65L395.10-3.65L395.10-3.65Q395.65-2.56 397.12-2.56L397.12-2.56L397.12-2.56Q398.59-2.56 399.52-3.26L399.52-3.26L399.52-3.26Q400.45-3.97 401.15-5.63L401.15-5.63L401.15-5.63Q402.43-8.58 403.46-14.05L403.46-14.05L403.46-14.05Q404.48-19.52 404.58-21.89L404.58-21.89L404.58-21.89Q404.67-24.26 404.67-26.02L404.67-26.02L404.67-26.02Q404.67-27.78 404.16-28.93L404.16-28.93L404.16-28.93Q403.65-30.08 402.21-30.08L402.21-30.08L402.21-30.08Q400.77-30.08 399.81-29.18L399.81-29.18L399.81-29.18Q398.85-28.29 398.08-26.56ZM466.37 1.28L466.37 1.28L466.37 1.28Q458.62 1.28 458.62-4.74L458.62-4.74L458.62-4.74Q458.62-7.36 459.74-12.45L459.74-12.45L459.74-12.45Q460.86-17.54 461.25-19.58L461.25-19.58L461.25-19.58Q462.14-24.26 462.14-25.73L462.14-25.73L462.14-25.73Q462.14-28.99 459.71-28.99L459.71-28.99L459.71-28.99Q458.11-28.99 456.58-26.78L456.58-26.78L456.58-26.78Q455.04-24.58 454.34-20.16L454.34-20.16L450.37 0L437.89 1.28L441.34-16.13L441.34-16.13Q441.92-19.01 442.43-22.27L442.43-22.27L442.43-22.27Q442.94-25.54 442.94-26.05L442.94-26.05L442.94-26.05Q442.94-28.99 440.77-28.99L440.77-28.99L440.77-28.99Q439.30-28.99 437.70-26.82L437.70-26.82L437.70-26.82Q436.10-24.64 435.20-20.16L435.20-20.16L431.30 0L418.69 1.28L425.41-32.64L435.84-33.92L434.75-27.46L434.75-27.46Q436.42-30.91 439.49-32.42L439.49-32.42L439.49-32.42Q442.56-33.92 447.36-33.92L447.36-33.92L447.36-33.92Q450.11-33.92 451.90-32.58L451.90-32.58L451.90-32.58Q453.70-31.23 454.27-29.06L454.27-29.06L454.27-29.06Q455.36-31.30 458.14-32.61L458.14-32.61L458.14-32.61Q460.93-33.92 464.35-33.92L464.35-33.92L464.35-33.92Q467.78-33.92 469.47-33.18L469.47-33.18L469.47-33.18Q471.17-32.45 472.19-31.23L472.19-31.23L472.19-31.23Q473.92-28.99 473.92-24.90L473.92-24.90L473.92-24.90Q473.92-20.86 472.19-12.48L472.19-12.48L472.19-12.48Q471.30-8.38 471.30-6.88L471.30-6.88L471.30-6.88Q471.30-5.38 472.16-4.48L472.16-4.48L472.16-4.48Q473.02-3.58 474.30-3.46L474.30-3.46L474.30-3.46Q473.66-1.28 471.46 0L471.46 0L471.46 0Q469.25 1.28 466.37 1.28ZM505.15-10.82L505.15-10.82L505.15-10.82Q506.75-9.73 506.75-7.33L506.75-7.33L506.75-7.33Q506.75-4.93 505.54-3.39L505.54-3.39L505.54-3.39Q504.32-1.86 502.34-0.83L502.34-0.83L502.34-0.83Q498.24 1.28 493.82 1.28L493.82 1.28L493.82 1.28Q489.41 1.28 486.82 0.32L486.82 0.32L486.82 0.32Q484.22-0.64 482.50-2.43L482.50-2.43L482.50-2.43Q479.10-5.82 479.10-12.03L479.10-12.03L479.10-12.03Q479.10-21.70 484.35-27.58L484.35-27.58L484.35-27.58Q489.98-33.92 499.78-33.92L499.78-33.92L499.78-33.92Q505.86-33.92 508.86-31.36L508.86-31.36L508.86-31.36Q511.10-29.44 511.10-26.30L511.10-26.30L511.10-26.30Q511.10-15.04 491.65-15.04L491.65-15.04L491.65-15.04Q491.39-13.38 491.39-11.97L491.39-11.97L491.39-11.97Q491.39-9.02 492.70-7.90L492.70-7.90L492.70-7.90Q494.02-6.78 496.45-6.78L496.45-6.78L496.45-6.78Q498.88-6.78 501.47-7.90L501.47-7.90L501.47-7.90Q504.06-9.02 505.15-10.82ZM492.10-17.79L492.10-17.79L492.10-17.79Q496.64-17.79 499.26-20.61L499.26-20.61L499.26-20.61Q501.89-23.30 501.89-27.58L501.89-27.58L501.89-27.58Q501.89-29.06 501.34-29.86L501.34-29.86L501.34-29.86Q500.80-30.66 499.71-30.66L499.71-30.66L499.71-30.66Q498.62-30.66 497.70-30.24L497.70-30.24L497.70-30.24Q496.77-29.82 495.81-28.42L495.81-28.42L495.81-28.42Q493.44-25.22 492.10-17.79ZM531.58-31.17L531.58-31.17L531.58-31.17Q529.41-32.83 529.41-36.38L529.41-36.38L529.41-36.38Q529.41-39.94 531.74-41.79L531.74-41.79L531.74-41.79Q534.08-43.65 538.11-43.65L538.11-43.65L538.11-43.65Q540.67-43.65 546.75-42.75L546.75-42.75L551.10-42.11L551.10-42.11Q553.28-41.86 555.55-41.86L555.55-41.86L555.55-41.86Q557.82-41.86 559.36-42.82L559.36-42.82L559.36-42.82Q561.66-40.77 561.66-37.82L561.66-37.82L561.66-37.82Q561.66-34.88 559.04-32.77L559.04-32.77L559.04-32.77Q556.35-30.53 552.90-30.53L552.90-30.53L552.90-30.53Q551.23-30.53 548.54-30.98L548.54-30.98L548.54-30.98Q545.41-21.12 545.41-14.27L545.41-14.27L545.41-14.27Q545.41-7.42 548.86-3.84L548.86-3.84L548.86-3.84Q547.26-0.96 544.90 0.16L544.90 0.16L544.90 0.16Q542.53 1.28 538.98 1.28L538.98 1.28L538.98 1.28Q535.42 1.28 533.22-0.67L533.22-0.67L533.22-0.67Q531.01-2.62 531.01-6.66L531.01-6.66L531.01-6.66Q531.01-11.33 533.57-19.01L533.57-19.01L533.57-19.01Q536.13-26.62 539.97-32.45L539.97-32.45L539.97-32.45Q538.11-32.64 536.19-32.64L536.19-32.64L536.19-32.64Q532.22-32.64 531.58-31.17ZM591.81-7.10L591.81-7.10L591.81-7.10Q591.81-4.29 594.69-3.46L594.69-3.46L594.69-3.46Q593.98-1.09 591.23 0.19L591.23 0.19L591.23 0.19Q588.93 1.28 586.40 1.28L586.40 1.28L586.40 1.28Q583.87 1.28 582.56 0.61L582.56 0.61L582.56 0.61Q581.25-0.06 580.54-1.15L580.54-1.15L580.54-1.15Q579.39-2.82 579.39-5.95L579.39-5.95L579.39-5.95Q579.39-7.81 580.42-12.93L580.42-12.93L581.31-17.79L581.31-17.79Q582.40-23.36 582.40-25.41L582.40-25.41L582.40-25.41Q582.40-28.99 580.42-28.99L580.42-28.99L580.42-28.99Q577.92-28.99 576.32-25.34L576.32-25.34L576.32-25.34Q575.68-23.94 575.23-21.82L575.23-21.82L570.88 0L558.02 1.28L567.04-44.80L579.90-46.08L579.39-43.52L579.39-43.52Q577.60-33.66 576.06-30.34L576.06-30.34L576.06-30.34Q579.65-33.92 586.24-33.92L586.24-33.92L586.24-33.92Q593.22-33.92 594.50-29.31L594.50-29.31L594.50-29.31Q594.94-27.84 594.94-26.56L594.94-26.56L594.94-26.56Q594.94-25.28 594.85-24.29L594.85-24.29L594.85-24.29Q594.75-23.30 594.43-21.50L594.43-21.50L593.60-16.90L592.13-9.66L592.13-9.66Q591.81-8.19 591.81-7.10ZM625.79-10.82L625.79-10.82L625.79-10.82Q627.39-9.73 627.39-7.33L627.39-7.33L627.39-7.33Q627.39-4.93 626.18-3.39L626.18-3.39L626.18-3.39Q624.96-1.86 622.98-0.83L622.98-0.83L622.98-0.83Q618.88 1.28 614.46 1.28L614.46 1.28L614.46 1.28Q610.05 1.28 607.46 0.32L607.46 0.32L607.46 0.32Q604.86-0.64 603.14-2.43L603.14-2.43L603.14-2.43Q599.74-5.82 599.74-12.03L599.74-12.03L599.74-12.03Q599.74-21.70 604.99-27.58L604.99-27.58L604.99-27.58Q610.62-33.92 620.42-33.92L620.42-33.92L620.42-33.92Q626.50-33.92 629.50-31.36L629.50-31.36L629.50-31.36Q631.74-29.44 631.74-26.30L631.74-26.30L631.74-26.30Q631.74-15.04 612.29-15.04L612.29-15.04L612.29-15.04Q612.03-13.38 612.03-11.97L612.03-11.97L612.03-11.97Q612.03-9.02 613.34-7.90L613.34-7.90L613.34-7.90Q614.66-6.78 617.09-6.78L617.09-6.78L617.09-6.78Q619.52-6.78 622.11-7.90L622.11-7.90L622.11-7.90Q624.70-9.02 625.79-10.82ZM612.74-17.79L612.74-17.79L612.74-17.79Q617.28-17.79 619.90-20.61L619.90-20.61L619.90-20.61Q622.53-23.30 622.53-27.58L622.53-27.58L622.53-27.58Q622.53-29.06 621.98-29.86L621.98-29.86L621.98-29.86Q621.44-30.66 620.35-30.66L620.35-30.66L620.35-30.66Q619.26-30.66 618.34-30.24L618.34-30.24L618.34-30.24Q617.41-29.82 616.45-28.42L616.45-28.42L616.45-28.42Q614.08-25.22 612.74-17.79ZM636.70-1.92L636.70-1.92L636.70-1.92Q635.20-3.58 634.53-6.21L634.53-6.21L634.53-6.21Q633.86-8.83 633.86-13.12L633.86-13.12L633.86-13.12Q633.86-17.41 635.33-21.31L635.33-21.31L635.33-21.31Q636.80-25.22 639.49-28.03L639.49-28.03L639.49-28.03Q644.99-33.92 654.08-33.92L654.08-33.92L654.08-33.92Q657.34-33.92 659.71-32.83L659.71-32.83L670.66-33.92L665.92-8.96L665.92-8.96Q665.73-8.19 665.73-6.78L665.73-6.78L665.73-6.78Q665.73-5.38 666.59-4.48L666.59-4.48L666.59-4.48Q667.46-3.58 668.74-3.46L668.74-3.46L668.74-3.46Q668.10-1.28 665.76 0L665.76 0L665.76 0Q663.42 1.28 660.80 1.28L660.80 1.28L660.80 1.28Q658.18 1.28 656.42 0.29L656.42 0.29L656.42 0.29Q654.66-0.70 654.14-2.37L654.14-2.37L654.14-2.37Q653.12-0.77 650.94 0.26L650.94 0.26L650.94 0.26Q648.77 1.28 645.86 1.28L645.86 1.28L645.86 1.28Q642.94 1.28 640.58 0.51L640.58 0.51L640.58 0.51Q638.21-0.26 636.70-1.92ZM650.21-27.90L650.21-27.90L650.21-27.90Q649.47-26.75 648.83-24.80L648.83-24.80L648.83-24.80Q648.19-22.85 647.14-17.63L647.14-17.63L647.14-17.63Q646.08-12.42 646.08-8.70L646.08-8.70L646.08-8.70Q646.08-4.99 646.66-3.90L646.66-3.90L646.66-3.90Q647.23-2.82 648.26-2.82L648.26-2.82L648.26-2.82Q650.30-2.82 651.81-4.77L651.81-4.77L651.81-4.77Q653.31-6.72 653.89-10.18L653.89-10.18L657.28-28.93L657.28-28.93Q655.94-30.08 654.37-30.08L654.37-30.08L654.37-30.08Q652.80-30.08 651.87-29.57L651.87-29.57L651.87-29.57Q650.94-29.06 650.21-27.90ZM675.14-6.40L675.14-6.40L675.14-6.40Q675.14-8.13 676.03-12.48L676.03-12.48L679.42-29.76L675.65-29.76L675.90-31.68L675.90-31.68Q683.58-33.98 691.01-39.62L691.01-39.62L694.08-39.62L692.54-32.64L697.54-32.64L696.96-29.76L692.03-29.76L688.77-12.48L688.77-12.48Q687.94-8.51 687.94-7.17L687.94-7.17L687.94-7.17Q687.94-4.10 690.62-3.46L690.62-3.46L690.62-3.46Q689.98-1.28 687.68 0L687.68 0L687.68 0Q685.38 1.28 682.11 1.28L682.11 1.28L682.11 1.28Q678.85 1.28 676.99-0.77L676.99-0.77L676.99-0.77Q675.14-2.82 675.14-6.40ZM722.88-10.82L722.88-10.82L722.88-10.82Q724.48-9.73 724.48-7.33L724.48-7.33L724.48-7.33Q724.48-4.93 723.26-3.39L723.26-3.39L723.26-3.39Q722.05-1.86 720.06-0.83L720.06-0.83L720.06-0.83Q715.97 1.28 711.55 1.28L711.55 1.28L711.55 1.28Q707.14 1.28 704.54 0.32L704.54 0.32L704.54 0.32Q701.95-0.64 700.22-2.43L700.22-2.43L700.22-2.43Q696.83-5.82 696.83-12.03L696.83-12.03L696.83-12.03Q696.83-21.70 702.08-27.58L702.08-27.58L702.08-27.58Q707.71-33.92 717.50-33.92L717.50-33.92L717.50-33.92Q723.58-33.92 726.59-31.36L726.59-31.36L726.59-31.36Q728.83-29.44 728.83-26.30L728.83-26.30L728.83-26.30Q728.83-15.04 709.38-15.04L709.38-15.04L709.38-15.04Q709.12-13.38 709.12-11.97L709.12-11.97L709.12-11.97Q709.12-9.02 710.43-7.90L710.43-7.90L710.43-7.90Q711.74-6.78 714.18-6.78L714.18-6.78L714.18-6.78Q716.61-6.78 719.20-7.90L719.20-7.90L719.20-7.90Q721.79-9.02 722.88-10.82ZM709.82-17.79L709.82-17.79L709.82-17.79Q714.37-17.79 716.99-20.61L716.99-20.61L716.99-20.61Q719.62-23.30 719.62-27.58L719.62-27.58L719.62-27.58Q719.62-29.06 719.07-29.86L719.07-29.86L719.07-29.86Q718.53-30.66 717.44-30.66L717.44-30.66L717.44-30.66Q716.35-30.66 715.42-30.24L715.42-30.24L715.42-30.24Q714.50-29.82 713.54-28.42L713.54-28.42L713.54-28.42Q711.17-25.22 709.82-17.79ZM751.04-17.98L751.04-17.98L751.04-17.98Q753.34-22.08 753.34-26.24L753.34-26.24L753.34-26.24Q753.34-28.99 751.36-28.99L751.36-28.99L751.36-28.99Q749.82-28.99 748.22-26.37L748.22-26.37L748.22-26.37Q746.56-23.74 746.05-20.35L746.05-20.35L742.72 0L729.47 1.28L736.00-32.64L746.56-33.92L745.41-27.46L745.41-27.46Q748.54-33.92 755.58-33.92L755.58-33.92L755.58-33.92Q759.30-33.92 761.31-32L761.31-32L761.31-32Q763.33-30.08 763.33-26.14L763.33-26.14L763.33-26.14Q763.33-22.21 760.74-19.71L760.74-19.71L760.74-19.71Q758.14-17.22 753.73-17.22L753.73-17.22L753.73-17.22Q751.81-17.22 751.04-17.98Z" fill="#f00" stroke="#0f0" stroke-width="1.8"></path></g></g><g><g transform="translate(-131.5640136897564, 98.99999618530273)"><path d="M0.45-0.32L0.45-0.32L8.51-42.24L8.51-42.24Q16.06-42.88 20.93-42.88L20.93-42.88L20.93-42.88Q25.79-42.88 28.93-42.46L28.93-42.46L28.93-42.46Q32.06-42.05 34.18-40.96L34.18-40.96L34.18-40.96Q38.40-38.91 38.40-33.28L38.40-33.28L38.40-33.28Q38.40-30.02 35.58-27.26L35.58-27.26L35.58-27.26Q32.96-24.77 30.08-24.19L30.08-24.19L30.08-24.19Q33.15-23.68 35.33-21.38L35.33-21.38L35.33-21.38Q37.63-18.94 37.63-15.17L37.63-15.17L37.63-15.17Q37.63-7.87 32.19-3.62L32.19-3.62L32.19-3.62Q26.75 0.64 16.06 0.64L16.06 0.64L16.06 0.64Q8.70 0.64 0.45-0.32ZM17.86-20.61L14.66-4.03L14.66-4.03Q15.23-3.97 15.36-3.97L15.36-3.97L15.94-3.97L15.94-3.97Q21.18-3.97 23.42-7.42L23.42-7.42L23.42-7.42Q25.09-10.11 25.09-15.04L25.09-15.04L25.09-15.04Q25.09-17.66 23.39-19.07L23.39-19.07L23.39-19.07Q21.70-20.48 17.86-20.61L17.86-20.61ZM27.58-33.22L27.58-33.22L27.58-33.22Q27.58-38.53 22.46-38.53L22.46-38.53L21.89-38.53L21.89-38.53Q21.63-38.53 21.25-38.46L21.25-38.46L18.69-24.96L19.33-24.96L19.33-24.96Q27.58-25.15 27.58-33.22ZM62.40-2.69L62.40-2.69L62.40-2.69Q59.33 1.28 51.71 1.28L51.71 1.28L51.71 1.28Q47.74 1.28 44.86-1.12L44.86-1.12L44.86-1.12Q41.98-3.52 41.98-6.98L41.98-6.98L41.98-6.98Q41.98-8.90 42.18-9.86L42.18-9.86L46.46-32.64L59.46-33.92L54.78-9.22L54.78-9.22Q54.53-7.81 54.53-6.98L54.53-6.98L54.53-6.98Q54.53-3.26 56.77-3.26L56.77-3.26L56.77-3.26Q59.26-3.26 61.06-6.66L61.06-6.66L61.06-6.66Q61.63-7.74 61.89-9.15L61.89-9.15L66.43-32.64L79.04-33.92L74.30-8.96L74.30-8.96Q74.11-8 74.11-6.98L74.11-6.98L74.11-6.98Q74.11-5.95 74.69-4.83L74.69-4.83L74.69-4.83Q75.26-3.71 77.12-3.46L77.12-3.46L77.12-3.46Q76.74-1.92 75.39-0.90L75.39-0.90L75.39-0.90Q72.58 1.28 69.54 1.28L69.54 1.28L69.54 1.28Q66.50 1.28 64.70 0.19L64.70 0.19L64.70 0.19Q62.91-0.90 62.40-2.69ZM97.86-3.52L97.86-3.52L97.86-3.52Q95.87 1.28 89.54 1.28L89.54 1.28L89.54 1.28Q86.27 1.28 84.22-0.96L84.22-0.96L84.22-0.96Q82.50-2.94 82.50-4.93L82.50-4.93L82.50-4.93Q82.50-10.11 84.86-20.22L84.86-20.22L87.23-32.64L100.22-33.92L96.32-13.70L96.32-13.70Q95.23-8.96 95.23-7.30L95.23-7.30L95.23-7.30Q95.23-3.65 97.86-3.52ZM88.38-41.54L88.38-41.54L88.38-41.54Q88.38-44.03 90.46-45.38L90.46-45.38L90.46-45.38Q92.54-46.72 95.55-46.72L95.55-46.72L95.55-46.72Q98.56-46.72 100.38-45.38L100.38-45.38L100.38-45.38Q102.21-44.03 102.21-41.54L102.21-41.54L102.21-41.54Q102.21-39.04 100.19-37.76L100.19-37.76L100.19-37.76Q98.18-36.48 95.17-36.48L95.17-36.48L95.17-36.48Q92.16-36.48 90.27-37.76L90.27-37.76L90.27-37.76Q88.38-39.04 88.38-41.54ZM118.59-3.52L118.59-3.52L118.59-3.52Q116.61 1.28 110.27 1.28L110.27 1.28L110.27 1.28Q107.07 1.28 105.02-0.96L105.02-0.96L105.02-0.96Q103.36-2.82 103.36-4.93L103.36-4.93L103.36-4.93Q103.36-9.73 105.60-20.22L105.60-20.22L110.27-44.80L123.26-46.08L117.06-13.70L117.06-13.70Q115.97-8.96 115.97-7.30L115.97-7.30L115.97-7.30Q115.97-3.65 118.59-3.52ZM144.19-33.92L144.19-33.92L144.19-33.92Q146.50-33.92 148.29-33.41L148.29-33.41L148.29-33.41Q148.35-33.66 148.48-34.37L148.48-34.37L148.80-36.35L148.80-36.35Q149.06-37.63 149.44-39.74L149.44-39.74L150.46-44.80L163.20-46.08L156.10-8.96L156.10-8.96Q156.03-8.58 156.03-7.94L156.03-7.94L156.03-6.91L156.03-6.91Q156.03-5.50 156.74-4.45L156.74-4.45L156.74-4.45Q157.44-3.39 158.59-3.39L158.59-3.39L158.59-3.39Q157.31-0.38 153.41 0.90L153.41 0.90L153.41 0.90Q152.06 1.28 150.18 1.28L150.18 1.28L150.18 1.28Q148.29 1.28 146.56 0.29L146.56 0.29L146.56 0.29Q144.83-0.70 144.32-2.37L144.32-2.37L144.32-2.37Q143.30-0.70 141.25 0.29L141.25 0.29L141.25 0.29Q139.20 1.28 136.22 1.28L136.22 1.28L136.22 1.28Q133.25 1.28 130.78 0.51L130.78 0.51L130.78 0.51Q128.32-0.26 126.78-1.92L126.78-1.92L126.78-1.92Q123.97-5.18 123.97-12.61L123.97-12.61L123.97-12.61Q123.97-22.21 129.60-28.03L129.60-28.03L129.60-28.03Q135.23-33.92 144.19-33.92ZM143.74-30.08L143.74-30.08L143.74-30.08Q141.38-30.08 140.10-27.52L140.10-27.52L140.10-27.52Q138.82-24.96 137.50-18.62L137.50-18.62L137.50-18.62Q136.19-12.29 136.19-6.59L136.19-6.59L136.19-6.59Q136.19-2.69 138.50-2.69L138.50-2.69L138.50-2.69Q140.54-2.69 141.98-4.74L141.98-4.74L141.98-4.74Q143.42-6.78 144-10.18L144-10.18L147.46-28.93L147.46-28.93Q146.11-30.08 143.74-30.08ZM183.30 0L187.01-18.82L187.01-18.82Q185.15-36.16 178.62-39.87L178.62-39.87L178.62-39.87Q179.97-41.54 182.14-42.46L182.14-42.46L182.14-42.46Q184.32-43.39 186.94-43.39L186.94-43.39L186.94-43.39Q189.57-43.39 191.55-42.46L191.55-42.46L191.55-42.46Q193.54-41.54 194.82-39.55L194.82-39.55L194.82-39.55Q197.25-35.78 197.25-26.75L197.25-26.75L197.25-22.14L197.25-22.14Q201.09-33.41 204.93-38.27L204.93-38.27L204.93-38.27Q208.83-43.26 213.70-43.26L213.70-43.26L213.70-43.26Q215.62-43.26 216.90-42.27L216.90-42.27L216.90-42.27Q218.18-41.28 218.82-39.81L218.82-39.81L218.82-39.81Q213.89-37.63 209.15-31.36L209.15-31.36L209.15-31.36Q204.42-25.09 201.34-16.32L201.34-16.32L197.57 0L183.30 0ZM226.18 1.28L226.18 1.28L226.18 1.28Q212.10 1.28 212.10-11.97L212.10-11.97L212.10-11.97Q212.10-21.38 217.28-27.46L217.28-27.46L217.28-27.46Q222.78-33.92 232.32-33.92L232.32-33.92L232.32-33.92Q239.23-33.92 242.75-30.72L242.75-30.72L242.75-30.72Q246.27-27.52 246.27-20.80L246.27-20.80L246.27-20.80Q246.27-10.56 240.77-4.61L240.77-4.61L240.77-4.61Q235.39 1.28 226.18 1.28ZM227.84-26.56L227.84-26.56L227.84-26.56Q227.07-24.83 226.46-22.24L226.46-22.24L226.46-22.24Q225.86-19.65 225.09-15.55L225.09-15.55L225.09-15.55Q224.32-11.46 224.32-6.40L224.32-6.40L224.32-6.40Q224.32-4.74 224.86-3.65L224.86-3.65L224.86-3.65Q225.41-2.56 226.88-2.56L226.88-2.56L226.88-2.56Q228.35-2.56 229.28-3.26L229.28-3.26L229.28-3.26Q230.21-3.97 230.91-5.63L230.91-5.63L230.91-5.63Q232.19-8.58 233.22-14.05L233.22-14.05L233.22-14.05Q234.24-19.52 234.34-21.89L234.34-21.89L234.34-21.89Q234.43-24.26 234.43-26.02L234.43-26.02L234.43-26.02Q234.43-27.78 233.92-28.93L233.92-28.93L233.92-28.93Q233.41-30.08 231.97-30.08L231.97-30.08L231.97-30.08Q230.53-30.08 229.57-29.18L229.57-29.18L229.57-29.18Q228.61-28.29 227.84-26.56ZM270.59-2.69L270.59-2.69L270.59-2.69Q267.52 1.28 259.90 1.28L259.90 1.28L259.90 1.28Q255.94 1.28 253.06-1.12L253.06-1.12L253.06-1.12Q250.18-3.52 250.18-6.98L250.18-6.98L250.18-6.98Q250.18-8.90 250.37-9.86L250.37-9.86L254.66-32.64L267.65-33.92L262.98-9.22L262.98-9.22Q262.72-7.81 262.72-6.98L262.72-6.98L262.72-6.98Q262.72-3.26 264.96-3.26L264.96-3.26L264.96-3.26Q267.46-3.26 269.25-6.66L269.25-6.66L269.25-6.66Q269.82-7.74 270.08-9.15L270.08-9.15L274.62-32.64L287.23-33.92L282.50-8.96L282.50-8.96Q282.30-8 282.30-6.98L282.30-6.98L282.30-6.98Q282.30-5.95 282.88-4.83L282.88-4.83L282.88-4.83Q283.46-3.71 285.31-3.46L285.31-3.46L285.31-3.46Q284.93-1.92 283.58-0.90L283.58-0.90L283.58-0.90Q280.77 1.28 277.73 1.28L277.73 1.28L277.73 1.28Q274.69 1.28 272.90 0.19L272.90 0.19L272.90 0.19Q271.10-0.90 270.59-2.69ZM310.72-17.98L310.72-17.98L310.72-17.98Q313.02-22.08 313.02-26.24L313.02-26.24L313.02-26.24Q313.02-28.99 311.04-28.99L311.04-28.99L311.04-28.99Q309.50-28.99 307.90-26.37L307.90-26.37L307.90-26.37Q306.24-23.74 305.73-20.35L305.73-20.35L302.40 0L289.15 1.28L295.68-32.64L306.24-33.92L305.09-27.46L305.09-27.46Q308.22-33.92 315.26-33.92L315.26-33.92L315.26-33.92Q318.98-33.92 320.99-32L320.99-32L320.99-32Q323.01-30.08 323.01-26.14L323.01-26.14L323.01-26.14Q323.01-22.21 320.42-19.71L320.42-19.71L320.42-19.71Q317.82-17.22 313.41-17.22L313.41-17.22L313.41-17.22Q311.49-17.22 310.72-17.98ZM361.09-4.80L361.09-4.80L361.09-4.80Q361.09-9.28 362.88-18.24L362.88-18.24L353.41-18.24L349.89 0L336.51 0L344.64-42.24L358.14-42.24L354.43-23.36L363.90-23.36L367.42-42.24L380.93-42.24L380.93-42.24Q380.03-37.50 378.88-32.19L378.88-32.19L376.70-21.76L376.70-21.76Q374.27-9.60 374.27-4.29L374.27-4.29L374.27-4.29Q374.27-2.11 374.98-0.90L374.98-0.90L374.98-0.90Q371.78 1.28 368.03 1.28L368.03 1.28L368.03 1.28Q364.29 1.28 362.69-0.51L362.69-0.51L362.69-0.51Q361.09-2.30 361.09-4.80ZM396.42 1.28L396.42 1.28L396.42 1.28Q382.34 1.28 382.34-11.97L382.34-11.97L382.34-11.97Q382.34-21.38 387.52-27.46L387.52-27.46L387.52-27.46Q393.02-33.92 402.56-33.92L402.56-33.92L402.56-33.92Q409.47-33.92 412.99-30.72L412.99-30.72L412.99-30.72Q416.51-27.52 416.51-20.80L416.51-20.80L416.51-20.80Q416.51-10.56 411.01-4.61L411.01-4.61L411.01-4.61Q405.63 1.28 396.42 1.28ZM398.08-26.56L398.08-26.56L398.08-26.56Q397.31-24.83 396.70-22.24L396.70-22.24L396.70-22.24Q396.10-19.65 395.33-15.55L395.33-15.55L395.33-15.55Q394.56-11.46 394.56-6.40L394.56-6.40L394.56-6.40Q394.56-4.74 395.10-3.65L395.10-3.65L395.10-3.65Q395.65-2.56 397.12-2.56L397.12-2.56L397.12-2.56Q398.59-2.56 399.52-3.26L399.52-3.26L399.52-3.26Q400.45-3.97 401.15-5.63L401.15-5.63L401.15-5.63Q402.43-8.58 403.46-14.05L403.46-14.05L403.46-14.05Q404.48-19.52 404.58-21.89L404.58-21.89L404.58-21.89Q404.67-24.26 404.67-26.02L404.67-26.02L404.67-26.02Q404.67-27.78 404.16-28.93L404.16-28.93L404.16-28.93Q403.65-30.08 402.21-30.08L402.21-30.08L402.21-30.08Q400.77-30.08 399.81-29.18L399.81-29.18L399.81-29.18Q398.85-28.29 398.08-26.56ZM466.37 1.28L466.37 1.28L466.37 1.28Q458.62 1.28 458.62-4.74L458.62-4.74L458.62-4.74Q458.62-7.36 459.74-12.45L459.74-12.45L459.74-12.45Q460.86-17.54 461.25-19.58L461.25-19.58L461.25-19.58Q462.14-24.26 462.14-25.73L462.14-25.73L462.14-25.73Q462.14-28.99 459.71-28.99L459.71-28.99L459.71-28.99Q458.11-28.99 456.58-26.78L456.58-26.78L456.58-26.78Q455.04-24.58 454.34-20.16L454.34-20.16L450.37 0L437.89 1.28L441.34-16.13L441.34-16.13Q441.92-19.01 442.43-22.27L442.43-22.27L442.43-22.27Q442.94-25.54 442.94-26.05L442.94-26.05L442.94-26.05Q442.94-28.99 440.77-28.99L440.77-28.99L440.77-28.99Q439.30-28.99 437.70-26.82L437.70-26.82L437.70-26.82Q436.10-24.64 435.20-20.16L435.20-20.16L431.30 0L418.69 1.28L425.41-32.64L435.84-33.92L434.75-27.46L434.75-27.46Q436.42-30.91 439.49-32.42L439.49-32.42L439.49-32.42Q442.56-33.92 447.36-33.92L447.36-33.92L447.36-33.92Q450.11-33.92 451.90-32.58L451.90-32.58L451.90-32.58Q453.70-31.23 454.27-29.06L454.27-29.06L454.27-29.06Q455.36-31.30 458.14-32.61L458.14-32.61L458.14-32.61Q460.93-33.92 464.35-33.92L464.35-33.92L464.35-33.92Q467.78-33.92 469.47-33.18L469.47-33.18L469.47-33.18Q471.17-32.45 472.19-31.23L472.19-31.23L472.19-31.23Q473.92-28.99 473.92-24.90L473.92-24.90L473.92-24.90Q473.92-20.86 472.19-12.48L472.19-12.48L472.19-12.48Q471.30-8.38 471.30-6.88L471.30-6.88L471.30-6.88Q471.30-5.38 472.16-4.48L472.16-4.48L472.16-4.48Q473.02-3.58 474.30-3.46L474.30-3.46L474.30-3.46Q473.66-1.28 471.46 0L471.46 0L471.46 0Q469.25 1.28 466.37 1.28ZM505.15-10.82L505.15-10.82L505.15-10.82Q506.75-9.73 506.75-7.33L506.75-7.33L506.75-7.33Q506.75-4.93 505.54-3.39L505.54-3.39L505.54-3.39Q504.32-1.86 502.34-0.83L502.34-0.83L502.34-0.83Q498.24 1.28 493.82 1.28L493.82 1.28L493.82 1.28Q489.41 1.28 486.82 0.32L486.82 0.32L486.82 0.32Q484.22-0.64 482.50-2.43L482.50-2.43L482.50-2.43Q479.10-5.82 479.10-12.03L479.10-12.03L479.10-12.03Q479.10-21.70 484.35-27.58L484.35-27.58L484.35-27.58Q489.98-33.92 499.78-33.92L499.78-33.92L499.78-33.92Q505.86-33.92 508.86-31.36L508.86-31.36L508.86-31.36Q511.10-29.44 511.10-26.30L511.10-26.30L511.10-26.30Q511.10-15.04 491.65-15.04L491.65-15.04L491.65-15.04Q491.39-13.38 491.39-11.97L491.39-11.97L491.39-11.97Q491.39-9.02 492.70-7.90L492.70-7.90L492.70-7.90Q494.02-6.78 496.45-6.78L496.45-6.78L496.45-6.78Q498.88-6.78 501.47-7.90L501.47-7.90L501.47-7.90Q504.06-9.02 505.15-10.82ZM492.10-17.79L492.10-17.79L492.10-17.79Q496.64-17.79 499.26-20.61L499.26-20.61L499.26-20.61Q501.89-23.30 501.89-27.58L501.89-27.58L501.89-27.58Q501.89-29.06 501.34-29.86L501.34-29.86L501.34-29.86Q500.80-30.66 499.71-30.66L499.71-30.66L499.71-30.66Q498.62-30.66 497.70-30.24L497.70-30.24L497.70-30.24Q496.77-29.82 495.81-28.42L495.81-28.42L495.81-28.42Q493.44-25.22 492.10-17.79ZM531.58-31.17L531.58-31.17L531.58-31.17Q529.41-32.83 529.41-36.38L529.41-36.38L529.41-36.38Q529.41-39.94 531.74-41.79L531.74-41.79L531.74-41.79Q534.08-43.65 538.11-43.65L538.11-43.65L538.11-43.65Q540.67-43.65 546.75-42.75L546.75-42.75L551.10-42.11L551.10-42.11Q553.28-41.86 555.55-41.86L555.55-41.86L555.55-41.86Q557.82-41.86 559.36-42.82L559.36-42.82L559.36-42.82Q561.66-40.77 561.66-37.82L561.66-37.82L561.66-37.82Q561.66-34.88 559.04-32.77L559.04-32.77L559.04-32.77Q556.35-30.53 552.90-30.53L552.90-30.53L552.90-30.53Q551.23-30.53 548.54-30.98L548.54-30.98L548.54-30.98Q545.41-21.12 545.41-14.27L545.41-14.27L545.41-14.27Q545.41-7.42 548.86-3.84L548.86-3.84L548.86-3.84Q547.26-0.96 544.90 0.16L544.90 0.16L544.90 0.16Q542.53 1.28 538.98 1.28L538.98 1.28L538.98 1.28Q535.42 1.28 533.22-0.67L533.22-0.67L533.22-0.67Q531.01-2.62 531.01-6.66L531.01-6.66L531.01-6.66Q531.01-11.33 533.57-19.01L533.57-19.01L533.57-19.01Q536.13-26.62 539.97-32.45L539.97-32.45L539.97-32.45Q538.11-32.64 536.19-32.64L536.19-32.64L536.19-32.64Q532.22-32.64 531.58-31.17ZM591.81-7.10L591.81-7.10L591.81-7.10Q591.81-4.29 594.69-3.46L594.69-3.46L594.69-3.46Q593.98-1.09 591.23 0.19L591.23 0.19L591.23 0.19Q588.93 1.28 586.40 1.28L586.40 1.28L586.40 1.28Q583.87 1.28 582.56 0.61L582.56 0.61L582.56 0.61Q581.25-0.06 580.54-1.15L580.54-1.15L580.54-1.15Q579.39-2.82 579.39-5.95L579.39-5.95L579.39-5.95Q579.39-7.81 580.42-12.93L580.42-12.93L581.31-17.79L581.31-17.79Q582.40-23.36 582.40-25.41L582.40-25.41L582.40-25.41Q582.40-28.99 580.42-28.99L580.42-28.99L580.42-28.99Q577.92-28.99 576.32-25.34L576.32-25.34L576.32-25.34Q575.68-23.94 575.23-21.82L575.23-21.82L570.88 0L558.02 1.28L567.04-44.80L579.90-46.08L579.39-43.52L579.39-43.52Q577.60-33.66 576.06-30.34L576.06-30.34L576.06-30.34Q579.65-33.92 586.24-33.92L586.24-33.92L586.24-33.92Q593.22-33.92 594.50-29.31L594.50-29.31L594.50-29.31Q594.94-27.84 594.94-26.56L594.94-26.56L594.94-26.56Q594.94-25.28 594.85-24.29L594.85-24.29L594.85-24.29Q594.75-23.30 594.43-21.50L594.43-21.50L593.60-16.90L592.13-9.66L592.13-9.66Q591.81-8.19 591.81-7.10ZM625.79-10.82L625.79-10.82L625.79-10.82Q627.39-9.73 627.39-7.33L627.39-7.33L627.39-7.33Q627.39-4.93 626.18-3.39L626.18-3.39L626.18-3.39Q624.96-1.86 622.98-0.83L622.98-0.83L622.98-0.83Q618.88 1.28 614.46 1.28L614.46 1.28L614.46 1.28Q610.05 1.28 607.46 0.32L607.46 0.32L607.46 0.32Q604.86-0.64 603.14-2.43L603.14-2.43L603.14-2.43Q599.74-5.82 599.74-12.03L599.74-12.03L599.74-12.03Q599.74-21.70 604.99-27.58L604.99-27.58L604.99-27.58Q610.62-33.92 620.42-33.92L620.42-33.92L620.42-33.92Q626.50-33.92 629.50-31.36L629.50-31.36L629.50-31.36Q631.74-29.44 631.74-26.30L631.74-26.30L631.74-26.30Q631.74-15.04 612.29-15.04L612.29-15.04L612.29-15.04Q612.03-13.38 612.03-11.97L612.03-11.97L612.03-11.97Q612.03-9.02 613.34-7.90L613.34-7.90L613.34-7.90Q614.66-6.78 617.09-6.78L617.09-6.78L617.09-6.78Q619.52-6.78 622.11-7.90L622.11-7.90L622.11-7.90Q624.70-9.02 625.79-10.82ZM612.74-17.79L612.74-17.79L612.74-17.79Q617.28-17.79 619.90-20.61L619.90-20.61L619.90-20.61Q622.53-23.30 622.53-27.58L622.53-27.58L622.53-27.58Q622.53-29.06 621.98-29.86L621.98-29.86L621.98-29.86Q621.44-30.66 620.35-30.66L620.35-30.66L620.35-30.66Q619.26-30.66 618.34-30.24L618.34-30.24L618.34-30.24Q617.41-29.82 616.45-28.42L616.45-28.42L616.45-28.42Q614.08-25.22 612.74-17.79ZM636.70-1.92L636.70-1.92L636.70-1.92Q635.20-3.58 634.53-6.21L634.53-6.21L634.53-6.21Q633.86-8.83 633.86-13.12L633.86-13.12L633.86-13.12Q633.86-17.41 635.33-21.31L635.33-21.31L635.33-21.31Q636.80-25.22 639.49-28.03L639.49-28.03L639.49-28.03Q644.99-33.92 654.08-33.92L654.08-33.92L654.08-33.92Q657.34-33.92 659.71-32.83L659.71-32.83L670.66-33.92L665.92-8.96L665.92-8.96Q665.73-8.19 665.73-6.78L665.73-6.78L665.73-6.78Q665.73-5.38 666.59-4.48L666.59-4.48L666.59-4.48Q667.46-3.58 668.74-3.46L668.74-3.46L668.74-3.46Q668.10-1.28 665.76 0L665.76 0L665.76 0Q663.42 1.28 660.80 1.28L660.80 1.28L660.80 1.28Q658.18 1.28 656.42 0.29L656.42 0.29L656.42 0.29Q654.66-0.70 654.14-2.37L654.14-2.37L654.14-2.37Q653.12-0.77 650.94 0.26L650.94 0.26L650.94 0.26Q648.77 1.28 645.86 1.28L645.86 1.28L645.86 1.28Q642.94 1.28 640.58 0.51L640.58 0.51L640.58 0.51Q638.21-0.26 636.70-1.92ZM650.21-27.90L650.21-27.90L650.21-27.90Q649.47-26.75 648.83-24.80L648.83-24.80L648.83-24.80Q648.19-22.85 647.14-17.63L647.14-17.63L647.14-17.63Q646.08-12.42 646.08-8.70L646.08-8.70L646.08-8.70Q646.08-4.99 646.66-3.90L646.66-3.90L646.66-3.90Q647.23-2.82 648.26-2.82L648.26-2.82L648.26-2.82Q650.30-2.82 651.81-4.77L651.81-4.77L651.81-4.77Q653.31-6.72 653.89-10.18L653.89-10.18L657.28-28.93L657.28-28.93Q655.94-30.08 654.37-30.08L654.37-30.08L654.37-30.08Q652.80-30.08 651.87-29.57L651.87-29.57L651.87-29.57Q650.94-29.06 650.21-27.90ZM675.14-6.40L675.14-6.40L675.14-6.40Q675.14-8.13 676.03-12.48L676.03-12.48L679.42-29.76L675.65-29.76L675.90-31.68L675.90-31.68Q683.58-33.98 691.01-39.62L691.01-39.62L694.08-39.62L692.54-32.64L697.54-32.64L696.96-29.76L692.03-29.76L688.77-12.48L688.77-12.48Q687.94-8.51 687.94-7.17L687.94-7.17L687.94-7.17Q687.94-4.10 690.62-3.46L690.62-3.46L690.62-3.46Q689.98-1.28 687.68 0L687.68 0L687.68 0Q685.38 1.28 682.11 1.28L682.11 1.28L682.11 1.28Q678.85 1.28 676.99-0.77L676.99-0.77L676.99-0.77Q675.14-2.82 675.14-6.40ZM722.88-10.82L722.88-10.82L722.88-10.82Q724.48-9.73 724.48-7.33L724.48-7.33L724.48-7.33Q724.48-4.93 723.26-3.39L723.26-3.39L723.26-3.39Q722.05-1.86 720.06-0.83L720.06-0.83L720.06-0.83Q715.97 1.28 711.55 1.28L711.55 1.28L711.55 1.28Q707.14 1.28 704.54 0.32L704.54 0.32L704.54 0.32Q701.95-0.64 700.22-2.43L700.22-2.43L700.22-2.43Q696.83-5.82 696.83-12.03L696.83-12.03L696.83-12.03Q696.83-21.70 702.08-27.58L702.08-27.58L702.08-27.58Q707.71-33.92 717.50-33.92L717.50-33.92L717.50-33.92Q723.58-33.92 726.59-31.36L726.59-31.36L726.59-31.36Q728.83-29.44 728.83-26.30L728.83-26.30L728.83-26.30Q728.83-15.04 709.38-15.04L709.38-15.04L709.38-15.04Q709.12-13.38 709.12-11.97L709.12-11.97L709.12-11.97Q709.12-9.02 710.43-7.90L710.43-7.90L710.43-7.90Q711.74-6.78 714.18-6.78L714.18-6.78L714.18-6.78Q716.61-6.78 719.20-7.90L719.20-7.90L719.20-7.90Q721.79-9.02 722.88-10.82ZM709.82-17.79L709.82-17.79L709.82-17.79Q714.37-17.79 716.99-20.61L716.99-20.61L716.99-20.61Q719.62-23.30 719.62-27.58L719.62-27.58L719.62-27.58Q719.62-29.06 719.07-29.86L719.07-29.86L719.07-29.86Q718.53-30.66 717.44-30.66L717.44-30.66L717.44-30.66Q716.35-30.66 715.42-30.24L715.42-30.24L715.42-30.24Q714.50-29.82 713.54-28.42L713.54-28.42L713.54-28.42Q711.17-25.22 709.82-17.79ZM751.04-17.98L751.04-17.98L751.04-17.98Q753.34-22.08 753.34-26.24L753.34-26.24L753.34-26.24Q753.34-28.99 751.36-28.99L751.36-28.99L751.36-28.99Q749.82-28.99 748.22-26.37L748.22-26.37L748.22-26.37Q746.56-23.74 746.05-20.35L746.05-20.35L742.72 0L729.47 1.28L736.00-32.64L746.56-33.92L745.41-27.46L745.41-27.46Q748.54-33.92 755.58-33.92L755.58-33.92L755.58-33.92Q759.30-33.92 761.31-32L761.31-32L761.31-32Q763.33-30.08 763.33-26.14L763.33-26.14L763.33-26.14Q763.33-22.21 760.74-19.71L760.74-19.71L760.74-19.71Q758.14-17.22 753.73-17.22L753.73-17.22L753.73-17.22Q751.81-17.22 751.04-17.98Z" fill="none" stroke="#fff" stroke-width="2.1"></path></g></g></g><style>text {
  font-size: 64px;
  font-family: Arial Black;
  dominant-baseline: central;
  text-anchor: middle;
}</style></svg>